<?xml version="1.0" encoding="utf-8"?>
<!-- Generator: Adobe Illustrator 26.2.1, SVG Export Plug-In . SVG Version: 6.00 Build 0)  -->
<svg version="1.1" xmlns="http://www.w3.org/2000/svg" xmlns:xlink="http://www.w3.org/1999/xlink" x="0px" y="0px"
	 viewBox="0 0 400 400" style="enable-background:new 0 0 400 400;" xml:space="preserve">
<style type="text/css">
	.st0{fill:#EE1312;}
	.st1{fill:#FFFFFF;}
	.st2{fill:#5F6368;}
	.st3{fill:#4285F4;}
	.st4{fill:#34A853;}
	.st5{fill:#FABB05;}
	.st6{fill:#E94235;}
	.st7{fill:#F26522;}
	.st8{fill:#E52423;}
	.st9{fill:#F99F1C;}
	.st10{fill:#7375CF;}
	.st11{fill:#EB001B;}
	.st12{fill:#00A2E5;}
	.st13{fill:#003087;}
	.st14{fill:#009CDE;}
	.st15{fill:#012169;}
	.st16{fill:#5A31F4;}
	.st17{fill:#FFFFFF;stroke:#FFFFFF;stroke-width:0.4227;stroke-miterlimit:10;}
	.st18{fill:url(#XMLID_00000082334037560531352720000016254895839350848943_);}
	.st19{fill:url(#XMLID_00000170243452954614822790000014576600894743784840_);}
	.st20{fill:url(#XMLID_00000017491965302510003650000009624140271573097633_);}
	.st21{fill:url(#XMLID_00000062883179070242775880000014233912434567304070_);}
	.st22{opacity:0.2;enable-background:new    ;}
	.st23{opacity:0.12;enable-background:new    ;}
	.st24{fill:#00589F;}
	.st25{fill:#F9A51A;}
	.st26{fill-rule:evenodd;clip-rule:evenodd;fill:#929292;}
	.st27{fill-rule:evenodd;clip-rule:evenodd;fill:#F11E15;}
</style>
<g id="RED">
	<circle class="st0" cx="200" cy="200" r="199"/>
</g>
<g id="LOGOS">
	<g>
		<path class="st1" d="M162.62,314.57c5.21-8.24,10.9-18.81,13.81-29.39c1.69-6.1,9.65-37.71,9.65-37.71
			c4.77,9.09,18.71,17.1,33.52,17.1c44.1,0,74.02-40.21,74.02-94.03c0-40.69-34.47-78.59-86.85-78.59
			c-65.18,0-98.05,46.73-98.05,85.7c0,23.6,8.93,44.59,28.1,52.41c3.14,1.28,5.96,0.04,6.87-3.43c0.63-2.41,2.14-8.49,2.79-11.01
			c0.92-3.44,0.57-4.65-1.97-7.65c-5.52-6.53-9.04-14.96-9.04-26.91c0-34.67,25.93-65.7,67.54-65.7c36.83,0,57.09,22.51,57.09,52.57
			c0,39.56-17.51,72.94-43.5,72.94c-14.36,0-25.09-11.87-21.65-26.42c4.12-17.38,12.12-36.14,12.12-48.69
			c0-11.22-6.03-20.6-18.51-20.6c-14.67,0-26.46,15.18-26.46,35.51c0,12.95,4.38,21.71,4.38,21.71s-15.02,63.62-17.65,74.76
			c-2.46,10.42-2.77,21.92-2.39,31.5c0,0-0.04,8.2,6.34,10.66S162.62,314.57,162.62,314.57z"/>
	</g>
</g>
</svg>
